<svg width="29" height="25" viewBox="0 0 29 25" fill="none" xmlns="http://www.w3.org/2000/svg">
<path d="M6.59023 0L22.8188 15.4445L25.71 12.6931L27.6328 14.523L24.2644 17.7287L28.6011 21.8559C29.133 22.3621 29.133 23.1798 28.6011 23.6859L27.6328 24.6074C27.5067 24.7277 27.3568 24.8232 27.1918 24.8883C27.0269 24.9534 26.85 24.9869 26.6714 24.9869C26.4928 24.9869 26.3159 24.9534 26.151 24.8883C25.986 24.8232 25.8361 24.7277 25.71 24.6074L21.3187 20.4932L17.9912 23.6989L16.0683 21.8689L18.9594 19.1175L2.73083 3.67294V0H6.59023ZM19.8049 9.81181L26.2691 3.65996V0H22.4097L15.9455 6.15185L19.8049 9.81181ZM13.0544 16.3011L9.19499 12.5763L6.18111 15.4445L3.28996 12.6931L1.36708 14.523L4.73553 17.7287L0.39882 21.8689C0.272395 21.989 0.172095 22.1316 0.10366 22.2886C0.0352255 22.4456 0 22.6139 0 22.7839C0 22.9539 0.0352255 23.1222 0.10366 23.2792C0.172095 23.4362 0.272395 23.5788 0.39882 23.6989L1.36708 24.6204C1.89894 25.1265 2.7581 25.1265 3.28996 24.6204L7.68123 20.4932L11.0088 23.6989L12.9317 21.8689L10.0405 19.1175L13.0544 16.3011Z" fill="url(#paint0_linear_2_167)"/>
<defs>
<linearGradient id="paint0_linear_2_167" x1="14.5" y1="0" x2="14.5" y2="25" gradientUnits="userSpaceOnUse">
<stop stop-color="#44FF9A"/>
<stop offset="1" stop-color="#004EFF"/>
</linearGradient>
</defs>
</svg>
