<svg width="34" height="26" viewBox="0 0 34 26" fill="none" xmlns="http://www.w3.org/2000/svg">
<path d="M1 8.83325C1 12.9883 2.65058 16.9731 5.58863 19.9112C8.52667 22.8492 12.5115 24.4998 16.6665 24.4998C20.8216 24.4998 24.8064 22.8492 27.7445 19.9112C30.6825 16.9731 32.3331 12.9883 32.3331 8.83325" stroke="#97A0CC" stroke-width="2" stroke-linecap="round" stroke-linejoin="round"/>
<path d="M16.667 24.4998C16.667 20.3448 18.3175 16.3599 21.2556 13.4219C24.1936 10.4838 28.1785 8.83325 32.3335 8.83325" stroke="#97A0CC" stroke-width="2" stroke-linecap="round" stroke-linejoin="round"/>
<path d="M1 8.83325C3.05736 8.83325 5.09457 9.23848 6.99532 10.0258C8.89608 10.8131 10.6231 11.9671 12.0779 13.4219C13.5327 14.8766 14.6867 16.6037 15.474 18.5045C16.2613 20.4052 16.6665 22.4424 16.6665 24.4998" stroke="#97A0CC" stroke-width="2" stroke-linecap="round" stroke-linejoin="round"/>
<path d="M16.667 1C18.2458 2.50721 19.4814 4.33684 20.2897 6.36441C21.0981 8.39197 21.4601 10.5699 21.3513 12.7499" stroke="#97A0CC" stroke-width="2" stroke-linecap="round" stroke-linejoin="round"/>
<path d="M11.9817 12.7499C11.8729 10.5699 12.2349 8.39197 13.0432 6.36441C13.8515 4.33684 15.0872 2.50721 16.666 1" stroke="#97A0CC" stroke-width="2" stroke-linecap="round" stroke-linejoin="round"/>
</svg>
